<svg id="Calque_1" data-name="Calque 1" xmlns="http://www.w3.org/2000/svg" viewBox="0 0 1000 1000"><defs><style>.cls-1{fill:#1a1a1a;}</style></defs><title>Feinte_Caractère</title><path class="cls-1" d="M724,717.52c-4.19,0-42.16-.9-42.16-33.87V358.31c-.61-23.87-7.24-49.69-25.24-70.65-21.46-25.07-59.11-43.21-122-42.83-165.42,1-223.95,64.78-250.52,96.38,29.13,0,71,.12,71,.12s55.33-111.65,216.79-72.84H572s.09,0,.17,0c8.67,2.1,17.65,4.63,27,7.65,20.55,8.61,70.36,34.83,36,75.83,0,0,0,0,0,.06a99.13,99.13,0,0,1-11.75,11.72,5.53,5.53,0,0,1-.52.46,224.39,224.39,0,0,1-18.67,14.65.12.12,0,0,1,0,.06,51.8,51.8,0,0,1-7.59,5.18l-.26.17c-9,5.18-26.14,12.74-53.5,16.11h0c-.12,0-.24,0-.32,0-94.09,8.55-79,5.18-114,12-.61.11-1.25.26-1.89.38s-1.13.23-1.69.35c-34.92,7.21-74.2,20.7-102.43,45.93a117.65,117.65,0,0,0-11.31,11.46l-.53.61a133.42,133.42,0,0,0-14.42,21.52c-15.2,27.88-28.81,74.17-14.65,142.44.29,1.34.55,2.68.87,4v0c14.22,62.57,61.69,105.33,165.09,115.28,116.68,7.15,182.14-45.06,209.06-107.4V745h67.78V717.52ZM422.45,675.38c-65.54,45.3-130.11,2.24-110.08-126.19,3.4-21.92,41.35-106.91,134-87.4C616.74,497.41,654.45,425,656.6,421.49V548.06C514.3,508.34,497.79,623.31,422.45,675.38Z"/></svg>