<svg id="Calque_1" data-name="Calque 1" xmlns="http://www.w3.org/2000/svg" viewBox="0 0 1000 1000"><defs><style>.cls-1{fill:#1a1a1a;}</style></defs><title>Feinte_Caractère</title><path class="cls-1" d="M767.15,541.11c-4.47-10.09-9.16-19.59-14-28.52-29.09-53.89-63.87-86.91-98.88-106.5-84.7-47.43-170.63-16.32-180-12.68l-.83.34h0c-3.94,1.65-7.95,3.41-12.08,5.32-18.43,9.39-40.38,22.37-65.93,40.16C391.32,442,387.23,445,383,448c-22.25,16.14-45.26,24.5-67.81,27.24V110.5H220.88s46.23,44.47,69.35,66.68V880.46a12.38,12.38,0,0,1,1.35.15q11.31,1.23,23.64,3.37c.38,0,.75.15,1.16.19,131.42,12.05,218.29,5.44,323.89-38.24C692,821,779.12,747.84,779.12,625.69,779.12,602.43,779.6,573.72,767.15,541.11ZM523.68,718.19c-18.5,59.26-29.09,147.26-140.16,144.48-33.47-.86-45.63-11.75-68.3-23.57V634.7c40.49-7.84,80-35,108.53-97.87,14.78-37,62.89-144.36,162.86-129.58C644.17,412.4,713.26,466,714,570.38,682,565.58,575.5,540.55,523.68,718.19Z"/></svg>