<svg id="Calque_1" data-name="Calque 1" xmlns="http://www.w3.org/2000/svg" viewBox="0 0 1000 1000"><defs><style>.cls-1{fill:#1a1a1a;}</style></defs><title>Feinte_Caractère</title><path class="cls-1" d="M688,674.38C675.23,670,662.54,666,649.32,658l-.61.72c-8.72,10.8-116.5,137.25-259,19.15,117.22-110.27,23.08-128.18-9-194.48C332,382.77,396.88,318.89,429.49,294.71c122.4-67.54,211.33,36.84,219.22,46.62l.61.72C662.54,334,675.23,330,688,325.62a2.63,2.63,0,0,0,.38-.16,166.18,166.18,0,0,1,28.6-7.17,247.25,247.25,0,0,0-28.07-24c-1-.72-2-1.44-3-2.23-1.21-.8-2.38-1.63-3.56-2.42a247.14,247.14,0,0,0-35.17-20.17c-1.51-.76-3-1.44-4.57-2.08A248.65,248.65,0,0,0,607,254.52,253.82,253.82,0,0,0,541.69,245a244.12,244.12,0,0,0-26.56,1c-.23,0-.45,0-.68.07-88.06,8.2-167.58,62.19-206.57,144.09-.68,1.47-1.36,2.91-2,4.34s-1.33,2.91-2,4.39c-.9,2.07-1.77,4.15-2.57,6.27s-1.81,4.57-2.68,6.91c-1.13,3.14-2.23,6.31-3.25,9.52-.53,1.59-1,3.17-1.51,4.8-.41,1.4-.83,2.79-1.21,4.15-.07.23-.15.53-.22.76-.61,2.08-1.14,4.15-1.67,6.23-.41,1.59-.79,3.14-1.13,4.72-.45,1.86-.87,3.67-1.25,5.52s-.71,3.63-1.05,5.48c-.31,1.43-.57,2.91-.8,4.38-.49,2.91-.94,5.86-1.36,8.77-.22,1.66-.41,3.32-.6,5-.49,4.38-.87,8.76-1.14,13.11,0,.45,0,.87-.07,1.28-.08.68-.08,1.4-.11,2.08-.08,1.13-.12,2.23-.19,3.36,0,1.36-.08,2.76-.12,4.16v1.74c0,.94,0,1.89,0,2.83s0,1.89,0,2.83v1.74c0,1.4.08,2.8.12,4.16.07,1.13.11,2.23.19,3.36,0,.68,0,1.4.11,2.08,0,.41,0,.83.07,1.28.27,4.35.65,8.73,1.14,13.11.19,1.7.38,3.36.6,5,.42,2.91.87,5.86,1.36,8.77.23,1.47.49,2.95.8,4.38.34,1.85.71,3.67,1.05,5.48s.8,3.66,1.25,5.51c.34,1.59.72,3.14,1.13,4.73.53,2.08,1.06,4.15,1.67,6.23.07.23.15.53.22.76.38,1.36.8,2.75,1.21,4.15.49,1.63,1,3.21,1.51,4.8,1,3.21,2.12,6.38,3.25,9.52.87,2.34,1.74,4.65,2.68,6.91s1.67,4.2,2.57,6.27c.64,1.48,1.29,2.91,2,4.39s1.32,2.87,2,4.34c39,81.9,118.51,135.89,206.57,144.09.23,0,.45,0,.68.07a246.67,246.67,0,0,0,26.56,1A254.28,254.28,0,0,0,607,745.48a248.65,248.65,0,0,0,35.66-12.92c1.55-.64,3.06-1.32,4.57-2.08a247.14,247.14,0,0,0,35.17-20.17c1.18-.79,2.35-1.62,3.56-2.42,1-.79,2-1.51,3-2.23A247.25,247.25,0,0,0,717,681.71a166.18,166.18,0,0,1-28.6-7.17A2.63,2.63,0,0,0,688,674.38ZM379.17,685.64l1.17.61S379.47,687.19,379.17,685.64Z"/></svg>