<svg id="Calque_1" data-name="Calque 1" xmlns="http://www.w3.org/2000/svg" viewBox="0 0 1000 1000"><defs><style>.cls-1{fill:#1a1a1a;}</style></defs><title>Feinte_Caractère</title><path class="cls-1" d="M685.28,109.15V386c-.08,0-.19,0-.27,0-.38,0-.76-.15-1.17-.19-131.7-12.06-218.7-5.44-324.53,38.3-51.84,25-139.07,98.31-139.07,220.7,0,23.3-.53,52,11.95,84.7,4.5,10.13,9.19,19.66,14,28.58,29.15,54,64,87.08,99.07,106.74,58.68,32.86,117.93,28.1,152,20.8a1.52,1.52,0,0,0,.27,0c3.44-.34,38.41-4.31,74.29-17.35,43.71-14.75,78-34.84,138.47,10.12h0V176c23.17-22.27,69.45-66.81,69.45-66.81Zm-63.9,710.61v0l.15-.08A.64.64,0,0,1,621.38,819.76ZM685,635.7c-40.61,7.82-80.2,35-108.74,98-14.82,37.09-63,144.63-163.19,129.8-51.92-11.11-162.25-68.28-151.24-215.4,134,24.91,209.13-52.41,203.3-112-6.08-61.89,18.42-134.41,129.69-138.16,32.67-1.09,62.43,9.12,90.18,22.31l.27.12V635.66C685.2,635.66,685.09,635.7,685,635.7Z"/></svg>