<svg id="Calque_1" data-name="Calque 1" xmlns="http://www.w3.org/2000/svg" viewBox="0 0 1000 1000"><defs><style>.cls-1{fill:#1a1a1a;}</style></defs><title>Feinte_Caractère</title><path class="cls-1" d="M500,245c-140.82,0-255,114.17-255,255s114.2,255,255,255c1.2,0,2.45,0,3.73,0,67.32-1.17,144.7-34,195.09-95.88.49-.57.9-1.13,1.36-1.74.71-.86,1.39-1.77,2.14-2.67a238.71,238.71,0,0,0,19.34-28.95c-1.06.26-58.8,8.14-110.1-21.56A210.47,210.47,0,0,1,582.39,640h0c-27.18,25.52-73.35,58.73-124.27,66.83h0c-26.16,3.09-48.77.26-68.41-6.44C311.43,673.55,282.56,584.9,277.4,566.62a.75.75,0,0,0,0-.3c-.08-.3-.23-.64-.34-1a.85.85,0,0,0-.11-.42c0-.22-.12-.49-.16-.71a2.88,2.88,0,0,1-.11-.49l-.11-.42c-3.73-14.55-5.58-32.53-5.2-51.56H755V496.66C753.21,357.36,639.76,245,500,245ZM272,496.66c5.69-74.17,44.14-156.41,131.09-124.94,35.28,14.51,51.94,68.9,101.54,124.94Z"/></svg>