<svg id="Calque_1" data-name="Calque 1" xmlns="http://www.w3.org/2000/svg" viewBox="0 0 1000 1000"><defs><style>.cls-1{fill:#1a1a1a;}</style></defs><title>Feinte_Caractère</title><path class="cls-1" d="M706.36,285.14H681.08c0-81.72-66.48-148.2-148.23-148.2-77.16,0-140.7,59.24-147.57,134.64-.43,4.47-.63,9-.63,13.56s.2,9.12.63,13.59v21.85h125v25h-125V549.2c5.11,85.64,125.15,109,157.09,126.16,153.83,82.78,34,213,34,213h-217c34.63-5.77,119.69-104.86,57.71-190.45-2.36-3.29-4.64-6.49-6.84-9.64a440.11,440.11,0,0,1-31.3-51.42c-16.57-35.69-19.25-63.74-19.57-75V183.11C336.2,160.83,293.64,120,293.64,120h91.64v74a173.49,173.49,0,0,1,147.57-82.38C628.54,111.66,706.36,189.48,706.36,285.14Z"/></svg>