<svg id="Calque_1" data-name="Calque 1" xmlns="http://www.w3.org/2000/svg" viewBox="0 0 1000 1000"><defs><style>.cls-1{fill:#1a1a1a;}</style></defs><title>Feinte_Caractère</title><path class="cls-1" d="M724,720.25c0-.37,0-.75,0-1.09,0-.86,0-1.73-.06-2.56s-.07-1.39-.1-2.1c0-.41-.06-.87-.09-1.3,0-.25,0-.5,0-.78-.19-2.69-.4-5.41-.68-8.1-.12-1.05-.25-2.1-.4-3.12-.25-1.79-.53-3.62-.84-5.44-.15-.9-.31-1.83-.49-2.69-.22-1.14-.43-2.29-.68-3.4s-.47-2.29-.74-3.43c-.25-1-.47-1.92-.71-2.91-.34-1.27-.68-2.57-1.06-3.86L718,679c-.25-.83-.52-1.7-.77-2.56-.31-1-.59-2-.93-3-.65-2-1.33-3.93-2-5.88-.56-1.45-1.11-2.84-1.67-4.27s-1-2.59-1.61-3.86c-.37-.93-.77-1.82-1.2-2.75s-.81-1.8-1.24-2.69A158.11,158.11,0,0,0,589,565.81c-2.78-.43-5.57-.77-8.35-1a1.67,1.67,0,0,0-.4,0c-.53,0-1-.1-1.55-.16s-1.29-.09-1.91-.12c-14.41-1.08-26.07-1.39-44.71,3.34a13.5,13.5,0,0,1-1.49.37c-7.48,2-16.07,4.76-26.37,8.6a5.27,5.27,0,0,0-.62.24c-3.8,1.39-7.85,3-12.18,4.7C437.31,603.37,363,584.14,360,583.37c0,0-.06,0-.1,0a87.45,87.45,0,0,1-16.29-7.17,2.14,2.14,0,0,1-.22-.13,45.64,45.64,0,0,1-6.24-4.26,0,0,0,0,1,0,0,191.33,191.33,0,0,1-15.31-12,3.28,3.28,0,0,1-.43-.4,81.09,81.09,0,0,1-9.65-9.62s0,0,0-.06c-28.16-33.64,12.74-55.19,29.62-62.27,7.64-2.47,15-4.55,22.14-6.28h.19c25.35-6.09,47.49-7.67,66.75-6.24q3.06.22,6,.58s0,0,.06,0c1.79.19,3.55.41,5.29.65a.18.18,0,0,1,.12,0c2,.22,4,.41,6,.56,4.91.43,9.92.62,15,.62A186.61,186.61,0,0,0,607.33,409c-.74.22-29.89,8.1-84.09-16.08-19.92,18.74-53.74,43.07-91.06,49h0c-19.2,2.26-35.8.19-50.15-4.73-57.35-19.69-78.5-84.65-82.3-98.07a.63.63,0,0,1-.07-.25c-.06-.22-.12-.46-.18-.71,0-.09-.06-.22-.1-.31s-.09-.34-.15-.5-.06-.24-.09-.4a2.52,2.52,0,0,0-.06-.28C285.16,282.66,307,165.57,391.86,196.3c31.32,12.83,42.58,68.52,100.89,117.37,43.69,36.58,124.76,50,143.74,46.16A187.08,187.08,0,0,0,613.08,179c8.17-23,39-23.75,42.89-23.75H705.9V126.06h-101v25.5l-4,12.68a186.33,186.33,0,0,0-138-60.85C359.68,103.39,276,187.09,276,290.33A187,187,0,0,0,388.12,461.71c-.77,0-1.51,0-2.29,0-46.56,1.27-75.07,15.64-91.7,35.06A81.25,81.25,0,0,0,281.48,517v0c-.18.37-.37.74-.52,1.14v0c-2.54,7.7-13.88,48.08,13.17,88.68v-.16c.12.19.34.59.71,1.18.06.12.16.25.22.37,1.36,2,2.78,3.93,4.33,5.87.21.25.4.53.65.78.09.12.21.24.34.4,8.28,9.27,25.9,23.5,60,29.59l.4.09c3,.56,6.22,1,9.55,1.42.1,0,.19,0,.31,0,18.89,1.89,62.46,1.8,118.76-26.34,7.48-3.71,15.18-7.94,23.1-12.77,3.31-2,6.61-4.05,10-6.27,1.09-.78,2.2-1.52,3.34-2.29,28.48-18.58,75.91-33.39,132.06,13.11-72.57,68.3-14.29,79.37,5.59,120.42C693.6,794.48,653.59,834,633.4,849.05c-14.91,8.23-29,12.37-42.08,13.61l-1,.09a93.36,93.36,0,0,1-35-3.71c-2-.53-4-1.14-6-1.82-23-7.58-43.07-21.52-57.94-34.23a237.36,237.36,0,0,1-24.21-23.93c-.84-.81-1.64-1.64-2.44-2.48-42.89-43.75-66.11-107.07-154.78-89.69a.09.09,0,0,0-.06,0c-1.46.4-24,7.05-25.45,32.59a115.27,115.27,0,0,0,9.71,52.5c9.43,21.86,25.6,42.39,48.11,58.4,0,0,.52.41,1.54,1.15.41.28.81.55,1.18.83s.46.34.71.5.53.37.8.55.59.37.87.59c23.5,15.83,126.36,75.53,267.17,18.21a.18.18,0,0,1,.12,0,158,158,0,0,0,94-82.24c.43-.9.84-1.8,1.24-2.66s.83-1.83,1.2-2.72c.59-1.3,1.12-2.6,1.61-3.9s1.11-2.84,1.67-4.3c.68-1.91,1.36-3.86,2-5.87.34-1,.62-1.95.93-3,.25-.86.52-1.73.77-2.56l.09-.47c.38-1.3.72-2.6,1.06-3.86.24-1,.46-1.95.71-2.94s.52-2.26.74-3.4.46-2.26.68-3.4c.18-.87.34-1.8.49-2.72.31-1.8.59-3.62.84-5.41.15-1,.28-2.08.4-3.1.28-2.72.49-5.44.68-8.13,0-.28,0-.52,0-.8s.06-.87.09-1.3c0-.68.07-1.39.1-2.07,0-.84.06-1.7.06-2.57,0-.34,0-.68,0-1.05,0-.62,0-1.2,0-1.79S724,720.8,724,720.25ZM663.73,606.68s.56-.58.74.37ZM535.91,864.26l6.4,2-6.68-1.79A1.21,1.21,0,0,0,535.91,864.26Zm2,13.08,8.44-1.14.59,2.47C543.92,878.33,540.89,877.87,537.89,877.34Z"/></svg>