<svg id="Calque_1" data-name="Calque 1" xmlns="http://www.w3.org/2000/svg" viewBox="0 0 1000 1000"><defs><style>.cls-1{fill:#1a1a1a;}</style></defs><title>Feinte_Caractère</title><path class="cls-1" d="M735.22,889.81H666.49c-52.43-61.2,47.26-122.37,44.36-209.78S652.59,601.35,606,586.77c-139.88-40.78-134-136.94-128.2-157.31-67,20.37-107.83,67-116.57,107.79-11.63,78.68,72.84,116.56,102,128.2,154.42,69.94,35,224.36,35,224.36H335C369.93,884,455.84,783.94,393.25,697.5c-2.38-3.31-4.67-6.55-6.9-9.71a445.61,445.61,0,0,1-31.6-51.94c-16.72-36-19.43-64.37-19.77-75.74V177.68l-70.2-67.49h95.51V497.33c69.9-113.63,132-111.6,172.83-111.6,96.16,0,144.21,62.67,173.37,109.26,40.78,75.78,24.74,155.89,7.26,255S735.22,889.81,735.22,889.81Z"/></svg>