<svg id="Calque_1" data-name="Calque 1" xmlns="http://www.w3.org/2000/svg" viewBox="0 0 1000 1000"><defs><style>.cls-1{fill:#1a1a1a;}</style></defs><title>Feinte_Caractère</title><path class="cls-1" d="M502.61,687.76s-.86.94-1.17-.61Z"/><path class="cls-1" d="M502.61,687.76s-.86.94-1.17-.61Z"/><path class="cls-1" d="M597.29,819.32H428.19c35.21-5.87,121.75-106.64,58.71-193.68-2.39-3.36-4.71-6.61-7-9.82a447.39,447.39,0,0,1-31.84-52.3c-16.86-36.29-19.56-64.81-19.91-76.29V387.31l-70.69-68,109.34,1.2v154c5.22,87.08,63.43,110.82,95.9,128.29C719.16,686.9,597.29,819.32,597.29,819.32Z"/><path class="cls-1" d="M481.41,236.14a55.45,55.45,0,1,1,55.47,55.43A55.44,55.44,0,0,1,481.41,236.14Z"/></svg>