<svg id="Calque_1" data-name="Calque 1" xmlns="http://www.w3.org/2000/svg" viewBox="0 0 1000 1000"><defs><style>.cls-1{fill:#1a1a1a;}</style></defs><title>Feinte_Caractère</title><circle class="cls-1" cx="693.38" cy="104.02" r="54.4"/><path class="cls-1" d="M313,820.48c-.18-.6-.33-1.2-.52-1.84-3.49-12-12.87-17.56-23.23-17.11,11.41-1.54,21.54,4,23.53,17.37C312.82,819.43,312.9,820,313,820.48Z"/><path class="cls-1" d="M550,812v-6.83C550,805.32,550.1,807.83,550,812Z"/><path class="cls-1" d="M254.57,869.16a90,90,0,0,0,20.2,35.17,89.53,89.53,0,0,1-20.5-35.43c-9.27-42.75,14.64-66.47,34.87-67.37C269.29,804.15,245.68,828.14,254.57,869.16Z"/><path class="cls-1" d="M568.34,429.33c16.55,35.65,19.22,63.61,19.55,74.87V816.84c0,2.33-.48,48.94-37,80.36-.08.07-.11.15-.23.22-2.47,2-5,4-7.58,5.86a237.51,237.51,0,0,1-70.22,36l-.15,0a148.69,148.69,0,0,1-26.8,7.44c-51.49,8.7-104.9,1.53-142.81-20.27,0,0-.07-.08-.11-.08-3.27-1.87-6.38-3.86-9.42-6-.68-.45-1.39-.94-2.06-1.43-1-.71-2-1.5-3-2.25-.67-.53-1.39-1-2.06-1.58-1.16-.94-2.29-1.88-3.42-2.85-1-.86-1.91-1.73-2.85-2.59-1.88-1.77-3.71-3.57-5.4-5.44a90,90,0,0,1-20.2-35.17c-8.89-41,14.72-65,34.57-67.63h.08c10.36-.45,19.74,5.06,23.23,17.11.19.64.34,1.24.52,1.84v0c18.92,66.28,55.36,96.46,136.09,93.41,12.61-1,36.94-7,58.59-20.22,0,0,.08,0,.08,0C544.21,869.16,549.35,828.14,550,812c.15-4.13,0-6.64,0-6.83V516.77c-5.11-85.46-62.23-108.73-94.06-125.91C302.39,308.29,422,178.35,422,178.35H587.89a28.25,28.25,0,0,0-4.27,1.13c-14.68,4.91-35.7,23-51.76,48.23-24.13,37.75-37.23,91.46-1.58,140.7,2.37,3.27,4.66,6.49,6.83,9.61,4.73,6.79,9,13.21,12.88,19.33C557.49,409.21,563.5,419.87,568.34,429.33Z"/></svg>