<svg id="Calque_1" data-name="Calque 1" xmlns="http://www.w3.org/2000/svg" viewBox="0 0 1000 1000"><defs><style>.cls-1{fill:#1a1a1a;}</style></defs><title>Feinte_Caractère</title><path class="cls-1" d="M755.19,888.85h-93c-1.07-.43-2.12-.9-3.08-1.36s-2-1-2.9-1.52a33.2,33.2,0,0,1-11.75-10.26s0,0-.05-.05a25.48,25.48,0,0,1-2.65-5.06c-9.56-24.47,17.76-63.1,39.85-106.24,7.7-15.14,14.85-30.89,19.45-46.73,0-.24.05-.47.08-.67C706,669.52,599,678.77,599,678.77S548.57,683,475.76,666.85c-15.17-3.37-31.62-8.11-49.62-13.49-45.31-15-78.53-60.71-85.21-110.36-.38-2.73-.67-5.49-.88-8.22V888.85H244.81l70-67.34v-643l-70-67.34h95.24V514.34c.21-2.67.5-5.37.88-8.05a121.19,121.19,0,0,1,25.22-58.88C395.68,410.14,451.9,383,543.86,383c177.62,0,172.42,97.72,172.42,97.72h-25a61.12,61.12,0,0,0-3.49-21.19c-4.94-13.66-14.94-23.28-28.13-30-25.67-13.14-63.28-15.43-99.5-15.43-25.78,0-53.56,4.85-77.43,16.39-34.73,16.77-61.09,47.67-61.09,98.39,0,86.23,74.7,127.56,178.46,127.56,88,0,109.52,25.26,114.69,39.88a23.65,23.65,0,0,1,1.46,10.17v3.17c-2.18,12.91-4.57,26.1-6.95,39.68a189.47,189.47,0,0,0-2.5,19.56,170.48,170.48,0,0,0,0,27.32,139.52,139.52,0,0,0,12.61,48.22c10.7,22.7,25.06,36.1,31.89,41.53.73.61,1.39,1.11,1.92,1.52A23.39,23.39,0,0,0,755.19,888.85Z"/></svg>