<svg id="Calque_1" data-name="Calque 1" xmlns="http://www.w3.org/2000/svg" viewBox="0 0 1000 1000"><defs><style>.cls-1{fill:#1a1a1a;}</style></defs><title>Feinte_Caractère</title><path class="cls-1" d="M876.16,752.46l-105.8,0c-52.56-61.32,70-121.87,67.07-209.43,0-67.06-44.07-79.55-90.76-94.14C606.56,408.07,612.39,311.71,618.21,291.3,589.73,300,566,313.39,547.38,329.12c7.16,9.52,13.36,19,18.92,27.84,40.87,75.9,24.84,156.18,7.32,255.39S595.1,752.46,595.1,752.46H518c-52.52-61.28,50.61-121.83,47.68-209.39,0-67.06-53.36-79.55-100-94.18C325.5,408,331.36,311.71,337.19,291.3c-67.14,20.41-108,67.1-116.77,108-.45,3-.76,6-.91,8.95a86,86,0,0,0,0,11.35c4,65.12,76.51,97.49,103.09,108.12,154.7,70,35,224.73,35,224.73H194.15c35-5.82,121.07-106.06,58.38-192.63-2.4-3.35-4.69-6.59-6.89-9.75a445,445,0,0,1-31.69-52c-16.76-36.1-19.46-64.48-19.8-75.9v-98c-23.43-22.5-70.31-67.6-70.31-67.6h95.67V359.28c70-113.83,132.27-111.78,173.13-111.78,67.33,0,111.13,30.66,141.33,65.09,56.25-66.5,105.49-65.09,139.73-65.09C770,247.5,818.19,310.27,847.37,357c40.86,75.9,24.79,156.18,7.31,255.43S876.16,752.46,876.16,752.46Z"/></svg>