<svg id="Calque_1" data-name="Calque 1" xmlns="http://www.w3.org/2000/svg" viewBox="0 0 1000 1000"><defs><style>.cls-1{fill:#1a1a1a;}</style></defs><title>Feinte_Caractère</title><path class="cls-1" d="M747.93,752.5H654.52c-70.44-29,47.35-122.6,44.43-210.17s-58.38-78.82-105.09-93.41c-140.11-40.87-134.27-137.2-128.44-157.63-67.13,20.43-108,67.14-116.76,108-11.67,78.82,73,116.77,102.17,128.44,59.52,26.95,78.43,66.41,79.16,104.8a140.2,140.2,0,0,1-1.86,24.81c-.12.76-.27,1.55-.41,2.33-5.2,27-21.4,67.76-70.94,92.83H322.39c35-5.84,121.08-106.08,58.38-192.66-2.39-3.33-4.7-6.57-6.92-9.75a446.72,446.72,0,0,1-31.67-52c-16.75-36.1-19.47-64.48-19.79-75.89V324.12c-23.44-22.53-70.32-67.63-70.32-67.63h95.66V359.3c70-113.84,132.29-111.8,173.16-111.8,96.32,0,144.49,62.76,173.68,109.47,40.87,75.89,24.81,156.17,7.3,255.42S747.93,752.5,747.93,752.5Z"/></svg>