<svg id="Calque_1" data-name="Calque 1" xmlns="http://www.w3.org/2000/svg" viewBox="0 0 1000 1000"><defs><style>.cls-1{fill:#1a1a1a;}</style></defs><title>Feinte_Caractère</title><path class="cls-1" d="M755,500a253.76,253.76,0,0,1-18.24,94.82c-25.88,5.19-136.48-13.1-196.06-63-79.52-66.65-94.9-142.57-137.61-160.11C287.33,329.8,257.52,489.54,276.48,563.29c0,0,0,.15.09.41a4.42,4.42,0,0,1,.14.52c.06.23.12.46.17.69a2.3,2.3,0,0,1,.12.43c.11.32.2.66.29,1a1.57,1.57,0,0,0,.08.29c5.17,18.29,34,106.93,112.25,133.77,19.59,6.72,42.24,9.55,68.41,6.46h0c50.9-8.13,97.07-41.32,124.25-66.85h0a208.61,208.61,0,0,0,29.22-35.84C662.87,633.87,720.61,626,721.62,625.7a233.06,233.06,0,0,1-19.31,28.94c-.72.93-1.41,1.82-2.13,2.72-.44.57-.9,1.15-1.36,1.7C648.41,721,571.05,753.79,503.71,755c-1.24,0-2.48,0-3.72,0-140.81,0-255-114.18-255-255S359.18,245,500,245,755,359.18,755,500Z"/></svg>