<svg id="Calque_1" data-name="Calque 1" xmlns="http://www.w3.org/2000/svg" viewBox="0 0 1000 1000"><defs><style>.cls-1{fill:#1a1a1a;}</style></defs><title>Feinte_Caractère</title><path class="cls-1" d="M779.62,373.7c0-2.65-.08-5.3-.15-7.92l.15.15c-1-250.66-281.44-256.76-281.44-256.76l-183.29.72-13.94,0-80.6,0,69.84,69.29L290.87,364l.15,36.83,1.59,423c-23,22.28-69,66.92-69,66.92l94.28-.38-1-270.29c34.78-65.52,106.55-38.42,132.47-25.84a.35.35,0,0,0,.23.11c4.62,2.58,9.06,4.89,13.3,7.05,4.13,1.86,8.11,3.6,12.09,5.23a4.49,4.49,0,0,0,.83.34c9.44,3.64,95.45,34.41,180-13.34,34.9-19.74,69.57-52.86,98.44-106.86q7.17-13.41,13.83-28.57C780.34,425.65,779.69,397,779.62,373.7ZM290,120.88v-.12h1ZM590.83,594.43c-99.88,15.2-151.15-93.6-166.08-130.54-28.73-62.75-68.36-89.73-108.87-97.43l-.65-162.33-.18-52.6c16.71-8,34.17-15,52.52-18.94A151.72,151.72,0,0,1,404.93,129c5.45.15,10.61.53,15.46,1.1C515,141.07,506.1,226,524,282.19c52.48,177.42,191.32,161.05,217.17,153.54C700,563,642.6,583.14,590.83,594.43Z"/></svg>