<svg id="Calque_1" data-name="Calque 1" xmlns="http://www.w3.org/2000/svg" viewBox="0 0 1000 1000"><defs><style>.cls-1{fill:#1a1a1a;}</style></defs><title>Feinte_Caractère</title><path class="cls-1" d="M710.21,187.56l69.4-69.36H685.18v17.94c.15,5.07.11,9.8,0,14.23-.9,28.45-7.21,43.87-15.58,51.53A146.28,146.28,0,0,1,617,177.43q-6.3-4.56-12.38-8.82c-25.6-17.79-47.56-30.81-66.06-40.2-4.09-1.91-8.11-3.64-12.05-5.29h0a4.85,4.85,0,0,0-.83-.34c-9.46-3.68-95.52-34.83-180.34,12.65-35,19.63-69.88,52.7-99,106.7-4.8,8.94-9.49,18.43-14,28.57-12.46,32.65-11.93,61.36-11.93,84.67,0,122.31,87.18,195.61,139,220.57,105.8,43.69,192.76,50.33,324.38,38.28.38,0,.79-.15,1.17-.22.07,0,.18,0,.26,0V890.64h94.43l-69.4-66.76Zm-25,386.65-.26.12c-27.74,13.21-57.5,23.42-90.12,22.29-78.7-2.7-112.33-42.26-119.91-107.68C468,429.45,395,303.12,261,328c4.91-134.43,110.23-180.52,152.15-191.41,100.1-14.82,148.29,92.71,163.08,129.75,28.52,63,68.12,90.15,108.69,98,.07,0,.18,0,.26,0Z"/></svg>