<svg id="Calque_1" data-name="Calque 1" xmlns="http://www.w3.org/2000/svg" viewBox="0 0 1000 1000"><defs><style>.cls-1{fill:#1a1a1a;}</style></defs><title>Feinte_Caractère</title><path class="cls-1" d="M645.54,379.17c-9.71-65.61-18.13-101.26-138-96.29-24.69,1.93-93.9,23-101.63,78.92V409c5.15,86.36,62.84,109.91,95,127.24C656,619.68,535.14,751,535.14,751H367.51c34.93-5.84,120.72-105.74,58.22-192.05-2.39-3.3-4.71-6.53-6.91-9.71-14-20.1-24.19-37.32-31.55-51.84-16.72-36-19.41-64.29-19.76-75.66v-98c-23.36-22.45-69.81-67.17-69.81-67.17l108.16,0v62C430.51,283.6,469,257.32,511,250c84.34-14.26,174,13.42,193.34,78.39C718.5,393.73,651,416.22,645.54,379.17Z"/></svg>