<svg id="Calque_1" data-name="Calque 1" xmlns="http://www.w3.org/2000/svg" viewBox="0 0 1000 1000"><defs><style>.cls-1{fill:#1a1a1a;}</style></defs><title>Feinte_Caractère</title><path class="cls-1" d="M780,497.46c0,1.42,0,2.8,0,4.21a259.6,259.6,0,0,1-139.87,225.8c-2.16,1.13-4.32,2.2-6.49,3.26s-4.07,1.94-6.12,2.86c-1.5.69-3,1.36-4.55,2l-3.47,1.47-4.07,1.65c-.54.2-1.09.43-1.64.63-2.22.87-4.47,1.7-6.72,2.51-1.82.64-3.61,1.24-5.43,1.85l-.63.2c-2,.66-4,1.3-6.06,1.9-1.73.52-3.47,1-5.2,1.51q-4,1.08-8,2.07c-1.76.44-3.49.84-5.22,1.22q-6.54,1.43-13.16,2.56c-1.47.23-3,.49-4.42.7l-2.1.31c-1.76.26-3.5.49-5.25.7-2.11.26-4.19.49-6.3.69s-4.18.37-6.29.52c-4.18.31-8.37.52-12.58.6-2.08.06-4.15.09-6.23.09H520q-3,0-6.06-.09l-3.93-.11c-.84,0-1.67-.06-2.48-.12-3-.14-6-.34-9-.6-1.21-.09-2.43-.21-3.64-.32-2.13-.2-4.27-.46-6.38-.72-.74-.09-1.5-.18-2.22-.29-1.7-.2-3.4-.46-5.07-.72-2.46-.38-4.88-.78-7.33-1.21-2.11-.41-4.22-.81-6.32-1.25-1.71-.34-3.41-.72-5.11-1.12a259,259,0,0,1-74.16-29.66,262.42,262.42,0,0,1-27.75-18.92,258.45,258.45,0,0,1-37.24-35.54,1.85,1.85,0,0,0-.31-.37c-2.43-2.92-4.79-5.92-7.1-9A264.77,264.77,0,0,1,288.55,612c-13.1-32.29-17.4-67.75-18.64-92.89V320.6c-.55-32-37.71-32.87-41.84-32.87-.26,0-.38-3.57-.38-3.57V256.57H360.5v277c0,3.37,0,5.71,0,6.85l0,0c1.3,31.25,8.25,75.46,28.13,113.63l.12.21c3.6,6,86.88,141.62,233.82,23.83a148.27,148.27,0,0,0,19-23.37,5.21,5.21,0,0,0,.29-.49c22.22-35.12,21.79-69.57,14-97.42-10.21-36.88-33.21-62.19-33.21-62.19a1.63,1.63,0,0,1-.17-.2c-61.84-69.16-18.07-173.85,7.56-221.67.05-.11.14-.26.2-.37,6.35-11.83,11.51-20.09,13.68-23.43.31-.5.57-.87.75-1.13l.34-.52c.12-.17.21-.35.32-.49,71.77,40,121.11,132.36,132.19,216.91.17,1.33.35,2.68.49,4v.12c.32,2.71.61,5.42.84,8.13.52,5.83.83,11.63,1,17.35C780,494.69,780,496.08,780,497.46Z"/></svg>