<svg id="Calque_1" data-name="Calque 1" xmlns="http://www.w3.org/2000/svg" viewBox="0 0 1000 1000"><defs><style>.cls-1{fill:#1a1a1a;}</style></defs><title>Feinte_Caractère</title><path class="cls-1" d="M781,538.85c-16,128.66-70.29,189.61-149.39,207.58h-.06c-1.73.41-3.43.73-5.1,1.11-86.32,17.91-144.87.71-180.13-18.52-4.31-2.35-8.25-4.73-11.86-7-1.23-.79-2.38-1.56-3.52-2.32-.56-.38-1.12-.76-1.68-1.17-1.11-.77-2.14-1.53-3.17-2.26-.5-.42-1-.77-1.52-1.15l-.27-.18c-.5-.41-1-.76-1.47-1.14-.32-.27-.67-.5-1-.79s-.91-.71-1.35-1.09-.92-.73-1.39-1.09l-.76-.64a149.84,149.84,0,0,1-14.38-14.24l-.09-.09c-31.92-35.7-49-85.38-58.11-129.51-.14-.7-.29-1.44-.44-2.14s-.32-1.61-.47-2.41c-8.66-44.21-4.4-25.13-15.2-144.1,0-.11,0-.26,0-.41v0c-4.29-34.58-13.83-56.31-20.38-67.67a1.49,1.49,0,0,1-.24-.32,67,67,0,0,0-6.54-9.58c0-.05-.06-.05-.06-.05-.62-.88-1.26-1.74-1.85-2.59q-5.82-8-11.27-14.62v0l-.06-.06c-8-7.63-18.56-17.82-29.13-28l-41.54-40h96.21a.23.23,0,0,1,.09,0,207,207,0,0,1,37.49,22,1.1,1.1,0,0,0,.18.14c11.18,9.46,24.6,22.9,39.93,42.05.52.64,1.05,1.29,1.55,2,1.62,2.06,3.26,4.35,4.91,6.84.08.15.14.24.14.24a117,117,0,0,1,6.46,11.21A148.61,148.61,0,0,1,415.94,366c10.13,36.11,12.8,91.13-8.78,173.16C375.72,683.24,469.53,720.77,516.41,729c93,16.35,156.67-21,177-71.55a62.17,62.17,0,0,0,4.38-13.66c6.4-26.6,1.41-55.66-16.77-82-55.69-80.53-169.2-110.69-179.09-212.48-.12-1.08-.21-2.11-.27-3.23a1.67,1.67,0,0,1,0-.32,219.65,219.65,0,0,1,.41-28c0-.53.08-1,.14-1.53.38-3.81.88-7.78,1.56-11.8.15-.85.26-1.73.44-2.58v-.06a2.17,2.17,0,0,1,0-.38c2.44-13.45,5.87-21.88,7.54-25.52.15-.29.3-.55.42-.79.23-.44.41-.76.52-1a2.23,2.23,0,0,1,.15-.29c7.08-13,19.88-26.1,42.78-28.39l2.49-.18C663.89,237.21,791,349.1,781,538.85Z"/></svg>