<svg id="Calque_1" data-name="Calque 1" xmlns="http://www.w3.org/2000/svg" viewBox="0 0 1000 1000"><defs><style>.cls-1{fill:#1a1a1a;}</style></defs><title>Feinte_Caractère</title><path class="cls-1" d="M941.64,538.84c-16,128.62-70.27,189.55-149.34,207.51h-.06c-1.73.42-3.44.74-5.11,1.12-86.29,17.9-144.82.7-180.07-18.52-4.31-2.35-8.25-4.73-11.86-7-1.23-.8-2.38-1.56-3.52-2.32-.56-.39-1.12-.77-1.67-1.18-1.12-.76-2.15-1.52-3.17-2.26-.5-.41-1-.76-1.53-1.14l-.26-.18c-.5-.41-1-.76-1.47-1.14s-.68-.5-1-.8-.91-.7-1.35-1.08-.91-.74-1.38-1.09l-.76-.64a149.84,149.84,0,0,1-14.38-14.24l-.09-.09c-1.23-1.38-2.47-2.79-3.67-4.22-24.6,29.05-55.86,46.52-92.37,54.82h-.06c-1.73.42-3.43.74-5.11,1.12-86.29,17.9-144.81.7-180.07-18.52-4.31-2.35-8.24-4.73-11.85-7-1.24-.8-2.38-1.56-3.53-2.32-.55-.39-1.11-.77-1.67-1.18-1.11-.76-2.14-1.52-3.17-2.26-.5-.41-1-.76-1.53-1.14l-.26-.18c-.5-.41-1-.76-1.47-1.14s-.67-.5-1-.8-.91-.7-1.35-1.08-.91-.74-1.38-1.09l-.77-.64A151,151,0,0,1,241,695.84l-.09-.09c-31.9-35.69-49-85.35-58.08-129.47-.15-.7-.3-1.43-.44-2.14s-.33-1.61-.47-2.41c-8.66-44.2-4.41-25.12-15.21-144,0-.12,0-.27,0-.41v0c-4.28-34.58-13.82-56.3-20.37-67.66a1.09,1.09,0,0,1-.23-.32,65,65,0,0,0-6.55-9.57c0-.06-.06-.06-.06-.06-.61-.88-1.26-1.73-1.85-2.58q-5.81-8-11.27-14.62v0l-.06,0c-8-7.64-18.55-17.82-29.11-28-20.81-20-39.36-37.89-39.36-37.89l98.39.09s-.1,0,0,0c1.3.56,13.66,5.59,33.24,19.85a.8.8,0,0,0,.18.15c11.18,9.45,24.59,22.89,39.91,42,.53.64,1.06,1.29,1.56,2,1.61,2.05,3.26,4.34,4.9,6.83l.15.24a119.18,119.18,0,0,1,6.46,11.21A149,149,0,0,1,253,366.05c10.13,36.1,12.8,91.11-8.77,173.11C212.81,683.19,306.59,720.7,353.46,729c93,16.35,156.62-21,176.93-71.53a57.23,57.23,0,0,0,3.2-8.81c.47-1.58.85-3.19,1.18-4.84,6.4-26.59,1.41-55.65-16.76-81.95a203,203,0,0,0-16.26-20.51C442.84,475.32,348,442,339,349.41c-.12-1.09-.21-2.12-.27-3.23a1.19,1.19,0,0,1,0-.32,221.52,221.52,0,0,1,.41-28c0-.52.09-1,.15-1.52.38-3.82.88-7.78,1.55-11.8.15-.85.27-1.73.44-2.58v-.06a2.17,2.17,0,0,1,0-.38c2.44-13.45,5.87-21.87,7.55-25.51.14-.29.29-.56.41-.79.23-.44.41-.77.53-1s.14-.3.14-.3c7.08-13,19.87-26.09,42.77-28.38l2.49-.17c21-1.62,42.74,1.49,64.11,9,39.83,13.91,78.28,43,107.39,85.2,34.26,49.52,55.62,117.09,51.28,199.24-6.63,53.33-19.81,95-38.66,126.83C604,708.49,649,724,677.18,729c93,16.35,156.62-21,176.93-71.53a61.89,61.89,0,0,0,4.37-13.65c6.4-26.59,1.41-55.65-16.76-81.95-55.68-80.51-169.15-110.65-179-212.41-.12-1.09-.2-2.12-.26-3.23a1.19,1.19,0,0,1,0-.32,219.65,219.65,0,0,1,.41-28c0-.52.09-1,.15-1.52.38-3.82.88-7.78,1.55-11.8.15-.85.27-1.73.44-2.58v-.06a2.17,2.17,0,0,1,0-.38c2.44-13.45,5.87-21.87,7.54-25.51.15-.29.3-.56.41-.79l.53-1a2.07,2.07,0,0,1,.15-.3c7.07-13,19.87-26.09,42.76-28.38l2.5-.17C824.61,237.29,951.64,349.14,941.64,538.84Z"/></svg>