<svg id="Calque_1" data-name="Calque 1" xmlns="http://www.w3.org/2000/svg" viewBox="0 0 1000 1000"><defs><style>.cls-1{fill:#1a1a1a;}</style></defs><title>Feinte_Caractère</title><path class="cls-1" d="M525.11,488.41c-1.33,1.7-2.67,3.41-4,5.11h0l-.66.85h0c14.5,2.47,26.47,4.25,34,6q21.57,5.37,39.91,11.41c233.34,76.84,89.5,232.89,89.5,232.89H521.17a254,254,0,0,0,29.1-14h0c41.58-23,94.6-62.35,96.9-86.86,7.43-59.72-33.13-92.45-81.41-111.31-20.09-7.86-41.53-13.34-61.39-17.34l-20.08,25.79a.18.18,0,0,0-.12,0c-1.87,2.44-3.77,4.88-5.67,7.29-2.1,2.7-4.17,5.39-6.27,8l-4.57,5.84c-11.12,14.27-21.81,28-31.91,41l-4.25,5.45-.66.85-7.09,9.11-6.44,8.25-5.81,7.46-7.77,10-4.91,6.32-2.39,3.07-3.74,4.79c-18.35,23.55-30.83,39.57-34.24,44l.26-.2-21,27-12.23,15.72,0,0H272.81V718.1h18c3,0,23.86-.48,34.67-13.53a.17.17,0,0,0,.08-.12,12.36,12.36,0,0,0,.94-1.22q3.94-5.1,8.34-10.69c17.75-22.84,40.16-51.68,65-83.6,1.11-1.39,2.19-2.78,3.26-4.17q2.85-3.62,5.71-7.32c4.48-5.67,9-11.46,13.47-17.27,2.27-2.92,4.57-5.84,6.84-8.77.17-.22.34-.42.51-.65q5.14-6.6,10.35-13.27l7.15-9.2,3.83-4.9c2.55-3.29,5.13-6.58,7.69-9.87h0l2-2.64,16.05-20.71-.19,0,1.61-2.07c-14.44-2.44-26.38-4.23-33.84-6q-21.57-5.35-39.91-11.4C171.06,413.84,317.2,255.1,317.2,255.1H477.65a249.92,249.92,0,0,0-29.1,14h0c-41.59,23-94.61,65-96.9,89.55C344.19,418.4,384.75,451.14,433,470c20.08,7.86,41.53,13.33,61.39,17.33l-8.09,10.41,5.05-6.41s0,0,.06,0c.56-.74,1.13-1.44,1.67-2.15.85-1,1.67-2.1,2.47-3.15l.45-.6,13-16.71c2.24-2.83,4.46-5.7,6.67-8.53s4.37-5.65,6.58-8.46c1.62-2.07,3.21-4.14,4.82-6.18.49-.63,1-1.25,1.45-1.85,11.66-14.94,22.89-29.38,33.5-43,18.33-23.55,34.72-44.57,47.91-61.5l5.34-6.87c14.38-18.46,24.08-30.91,27-34.77-.06,0-.17.14-.37.28l21-27.2,12.08-15.6H728v26.77H710c-2.95,0-23.8.46-34.63,13.51l0,0a16,16,0,0,0-1.22,1.59q-3.87,5-8.17,10.47c-17.76,22.84-40.17,51.63-65,83.54-1.11,1.39-2.19,2.78-3.26,4.17q-2.87,3.61-5.71,7.32c-4.48,5.67-9,11.46-13.47,17.27-2.27,2.93-4.57,5.85-6.84,8.77-2.1,2.69-4.22,5.42-6.35,8.14l-4.51,5.79-7.15,9.19-3.83,4.91q-6,7.74-12.11,15.54l-7.21,9.28Z"/></svg>