<svg id="Calque_1" data-name="Calque 1" xmlns="http://www.w3.org/2000/svg" viewBox="0 0 1000 1000"><defs><style>.cls-1{fill:#1a1a1a;}</style></defs><title>Feinte_Caractère</title><path class="cls-1" d="M772.32,209.9v0C743.48,80,643.18,6.94,557,13.58l-2.5.17c-22.9,2.29-35.71,15.36-42.79,28.4a1.74,1.74,0,0,0-.14.29c-.12.21-.3.53-.53,1-.12.24-.27.5-.41.8-1.68,3.64-5.11,12.07-7.55,25.52a2.17,2.17,0,0,0,0,.38v.06c-.18.85-.29,1.73-.44,2.58-.68,4-1.18,8-1.56,11.81-.06.5-.11,1-.14,1.53a221.36,221.36,0,0,0-.42,28,1.23,1.23,0,0,0,0,.33c.06,1.11.15,2.14.27,3.23,9.9,101.82,123.43,132,179.14,212.53,18.18,26.32,23.17,55.39,16.77,82a62.42,62.42,0,0,1-4.37,13.65c-20.33,50.58-84,87.93-177,71.57C468.39,489.13,374.55,451.6,406,307.49c21.58-82.05,18.91-137.09,8.78-173.21A149.43,149.43,0,0,0,404.3,107a113.76,113.76,0,0,0-6.46-11.21l-.14-.24c-1.65-2.5-3.29-4.79-4.91-6.84-.5-.68-1-1.32-1.55-2-15.33-19.15-28.76-32.6-39.94-42.05a.8.8,0,0,1-.18-.15,207.3,207.3,0,0,0-37.5-22,.23.23,0,0,0-.09,0H217.29l41.55,40C269.42,72.72,280,82.91,288,90.55l.06.06v0q5.46,6.64,11.27,14.62c.59.85,1.24,1.71,1.85,2.59,0,0,0,0,.06.06a64.37,64.37,0,0,1,6.55,9.57,1.12,1.12,0,0,0,.24.32c6.55,11.37,16.09,33.1,20.38,67.7v0c0,.14,0,.29,0,.41,10.8,119,6.55,99.91,15.21,144.14.15.79.32,1.58.47,2.4s.29,1.44.44,2.15c9.13,44.14,26.2,93.83,58.12,129.54l.09.09a148.79,148.79,0,0,0,14.39,14.24l.76.65c.47.35.91.73,1.38,1.08s.91.74,1.35,1.09.68.53,1,.79c.47.39,1,.74,1.47,1.15l.26.17c.5.39,1,.74,1.53,1.15,1,.73,2.06,1.5,3.17,2.26.56.41,1.12.79,1.68,1.18,1.14.76,2.29,1.52,3.52,2.32,3.61,2.32,7.55,4.7,11.87,7C480.4,516.62,539,533.83,625.3,515.92c1.67-.39,3.38-.71,5.11-1.12h.06c3.9-.88,7.75-1.88,11.51-3l0,0L541.23,599.48a2,2,0,0,1,.35-.24c-45.11,35.07-85.4,73.6-119.18,118l0,.06s-.05,0-.05.06c-4.17,5.32-153.16,195.8-118.15,253.56,3.32,6.46,9.54,11.81,19.47,15.92h94s-27.34-17.56-41.35-57.62a1.26,1.26,0,0,1-.06-.15c-.47-1-3.09-6.9-4.79-17.26a1.3,1.3,0,0,0,0-.15c-6.58-40.32.65-147.52,198-296.47l.06-.06q12.42-9.39,25.9-19c2.23-1.59,4.44-3.17,6.61-4.76a.3.3,0,0,0,.15-.12c64.49-49.36,141.57-113.95,172.38-237,.32-1.27.62-2.56.91-3.82C789.47,290.25,780.3,242.24,772.32,209.9ZM519,839.71c1.58-4.06,3.23-8.08,4.9-12-1.56,4.2-3.29,8.39-5.11,12.57C518.8,840.06,518.89,839.88,519,839.71Z"/></svg>