<svg id="Calque_1" data-name="Calque 1" xmlns="http://www.w3.org/2000/svg" viewBox="0 0 1000 1000"><defs><style>.cls-1{fill:#1a1a1a;}</style></defs><title>Feinte_Caractère</title><path class="cls-1" d="M702.43,617c.11-.27.17-.38.17-.38s0,13,0,87.15c-23.42,44.34-63,54.43-103.18,50.4-57.87-5.83-117.11-40.92-131.55-45.3-75.2-24.78-130.74,27.38-138.07,34.8-.41.38-.49.53-.75.76H293.37c4.43-5.68,45.3-58.17,103.58-133.11,1.13-1.42,2.24-2.85,3.34-4.27q2.91-3.69,5.82-7.47c4.58-5.8,9.16-11.71,13.77-17.65,2.32-3,4.66-6,7-9q5.52-7.08,11.1-14.23l7.31-9.39c1.3-1.68,2.61-3.33,3.91-5,4.11-5.28,8.26-10.58,12.37-15.88.27-.32.5-.64.73-1,3.77-4.81,7.48-9.59,11.22-14.38.34-.43.69-.9,1-1.33,1.36-1.74,2.72-3.48,4.06-5.22,5.45-6.95,10.87-13.91,16.23-20.81q6.92-8.91,13.76-17.68c2.29-2.89,4.55-5.82,6.81-8.72s4.47-5.77,6.73-8.64,4.26-5.5,6.4-8.2C588.15,366,637.33,302.91,644.75,293.26c-.23.17-1.71,1.3-4.29,3.07-16.69,11.33-80.66,49.09-166.3,28.54l-.14,0c-5.94-1.42-11.83-2.55-17.59-3.37-85.73-12.34-150.92,37.83-158.62,60.08l-.76,1.45c-.11.24-.17.35-.17.35s0-13,0-87.15c23.41-44.34,63-54.43,103.17-50.4,57.88,5.83,117.12,40.92,131.55,45.3,75.21,24.78,131.27-28.23,138.6-35.65.41-.38.49-.53.75-.76h35.65c-4.43,5.68-45.82,59-104.11,134-1.13,1.42-2.23,2.84-3.33,4.27q-2.91,3.69-5.82,7.47c-4.58,5.8-9.16,11.71-13.77,17.65-2.32,3-4.67,6-7,9q-5.52,7.08-11.1,14.23l-7.3,9.39c-1.3,1.68-2.61,3.33-3.91,5q-6.18,7.92-12.38,15.88c-.26.32-.49.64-.72,1-3.77,4.81-7.48,9.59-11.22,14.38-.35.43-.69.9-1,1.33-1.36,1.74-2.73,3.48-4.06,5.22-5.45,6.95-10.87,13.91-16.23,20.81-4.61,5.94-9.22,11.82-13.77,17.67-2.29,2.9-4.55,5.83-6.81,8.73s-4.46,5.77-6.72,8.64-4.26,5.5-6.41,8.2C411.33,634,362.15,697.09,354.73,706.74c.23-.17,1.71-1.3,4.29-3.07,16.69-11.33,80.65-49.09,166.3-28.54l.14,0c5.94,1.42,11.83,2.55,17.59,3.37,92.86,3.44,134.6-29.88,150.77-49a70.44,70.44,0,0,0,7.82-11C702,617.8,702.28,617.31,702.43,617Z"/></svg>